<?xml version="1.0" encoding="UTF-8"?><svg id="Layer_2" xmlns="http://www.w3.org/2000/svg" width="24" height="31" viewBox="0 0 24 31"><rect x="0" y="3.5" width="24" height="24" rx="4" ry="4" fill="#2d1d14"/><path d="M18.75,23.38h-2.35c-.49,0-.94-.08-1.37-.25-.43-.17-.78-.44-1.05-.83-.27-.38-.41-.9-.41-1.55v-4.73l.11-.56c0-.84-.14-1.49-.42-1.96-.28-.47-.89-.7-1.82-.7-.88,0-1.69.22-2.44.66s-1.36,1-1.85,1.69l-2.02-2.91c.45-.5,1-.97,1.65-1.4.65-.43,1.4-.78,2.23-1.05.83-.27,1.73-.41,2.7-.41,1.74,0,3.08.45,4.05,1.36.96.91,1.44,2.22,1.44,3.93v4.7c0,.3.06.51.18.63s.3.18.55.18h.81v3.19ZM9.12,23.69c-1.06,0-1.93-.28-2.6-.85-.67-.57-1.01-1.4-1.01-2.51s.33-1.89.99-2.53,1.64-1.19,2.93-1.64l4.56-1.71.36,2.38-3.7,1.54c-.54.22-.92.44-1.13.66-.21.21-.32.45-.32.71,0,.32.12.56.35.74.23.18.58.27,1.05.27s.89-.06,1.26-.18c.37-.12.69-.29.94-.52s.44-.49.57-.81c.13-.32.2-.69.2-1.12l.08,1.34c-.13.62-.36,1.25-.69,1.89-.33.64-.8,1.2-1.43,1.65-.63.46-1.43.69-2.42.69Z" fill="#e5cdaf"/></svg>