<?xml version="1.0" encoding="UTF-8"?><svg id="Layer_1" xmlns="http://www.w3.org/2000/svg" width="24" height="24" viewBox="0 0 24 24"><rect x="0" y="0" width="24" height="24" rx="4" ry="4" fill="#f6f0e8"/><path d="M15.64,19.91h-1.85c-.38,0-.74-.07-1.08-.2-.34-.13-.61-.35-.83-.65-.21-.3-.32-.71-.32-1.22v-3.72l.09-.44c0-.66-.11-1.17-.33-1.54-.22-.37-.7-.55-1.43-.55-.69,0-1.33.17-1.91.52-.59.34-1.07.79-1.45,1.33l-1.58-2.29c.35-.4.78-.76,1.3-1.1.51-.34,1.1-.61,1.75-.83.65-.21,1.36-.32,2.12-.32,1.36,0,2.42.36,3.18,1.07.75.71,1.13,1.74,1.13,3.09v3.7c0,.24.05.4.14.5s.24.14.43.14h.64v2.51ZM8.07,20.15c-.84,0-1.52-.22-2.05-.67-.53-.45-.79-1.1-.79-1.97,0-.82.26-1.48.78-1.99.52-.51,1.29-.94,2.3-1.29l3.59-1.34.29,1.87-2.9,1.21c-.43.18-.72.35-.89.52-.17.17-.25.36-.25.56,0,.25.09.44.27.58.18.14.46.21.83.21s.7-.05.99-.14.54-.23.74-.41c.2-.18.35-.39.45-.64s.15-.54.15-.88l.07,1.06c-.1.48-.28.98-.54,1.49-.26.51-.63.94-1.12,1.3-.49.36-1.13.54-1.9.54Z" fill="#f6f0e8"/><rect x="1.76" y="2.51" width="20.49" height="5.3" fill="#f6f0e8"/><path d="M3.43,6.76c-.22,0-.44-.03-.64-.08s-.38-.12-.54-.22-.28-.2-.37-.32l.41-.61c.09.09.19.17.32.26.12.09.26.15.4.21.14.05.29.08.45.08.12,0,.22-.02.28-.06s.1-.1.1-.18-.04-.14-.13-.18c-.09-.04-.21-.08-.37-.12l-.41-.1c-.18-.05-.35-.11-.49-.18-.14-.07-.26-.16-.34-.28-.08-.11-.12-.26-.12-.44,0-.3.11-.54.34-.71s.52-.25.9-.25c.33,0,.62.06.85.18.23.12.4.24.51.38l-.4.6c-.15-.15-.31-.27-.49-.36-.18-.08-.36-.12-.54-.12-.11,0-.19.02-.26.06s-.09.1-.09.17c0,.08.04.14.12.19.08.05.22.1.42.15l.34.09c.34.09.58.21.74.35s.23.33.23.56c0,.2-.05.36-.16.5-.1.14-.25.25-.43.32s-.39.11-.63.11Z" fill="#f6f0e8"/><path d="M5.99,6.69h-.89V2.51h.89v4.19ZM7.96,6.69h-.89v-1.83c0-.19-.03-.33-.1-.44-.06-.11-.2-.16-.41-.16-.14,0-.25.03-.33.08-.08.05-.14.14-.18.24-.04.11-.05.25-.05.41l-.02-.32c.02-.19.07-.37.14-.54.07-.17.19-.31.33-.42.15-.11.34-.16.57-.16.29,0,.52.09.69.26.17.17.25.41.25.73v2.14Z" fill="#f6f0e8"/><path d="M9.93,6.76c-.31,0-.58-.07-.81-.2-.23-.14-.41-.32-.53-.57s-.19-.52-.19-.83.06-.59.19-.83.3-.43.53-.56c.23-.14.5-.2.81-.2s.59.07.83.2.42.32.54.56c.13.24.19.52.19.83s-.06.58-.19.83c-.13.24-.31.43-.54.57s-.51.2-.83.2ZM9.94,6.03c.13,0,.24-.03.34-.09.1-.06.17-.15.23-.28.05-.13.08-.29.08-.5s-.03-.38-.08-.5c-.05-.13-.13-.22-.23-.28-.1-.06-.21-.09-.34-.09s-.24.03-.33.09c-.1.06-.17.15-.23.28-.05.13-.08.29-.08.5s.03.38.08.5c.05.13.13.22.23.28.1.06.21.09.33.09Z" fill="#f6f0e8"/><path d="M13.89,4.31h-2.2v-.68h2.2v.68ZM13.14,6.76c-.23,0-.41-.04-.56-.12-.15-.08-.26-.2-.33-.34-.07-.15-.11-.31-.11-.5v-2.52l.89-.47v2.82c0,.12.03.21.08.26.06.05.13.07.21.07.1,0,.18-.03.27-.1.08-.06.15-.14.19-.23l.26.73c-.07.08-.18.17-.33.26s-.35.13-.58.13Z" fill="#f6f0e8"/><path d="M16.51,6.69h-.89V2.51h.89v4.19ZM17.45,6.76c-.24,0-.42-.05-.56-.16-.13-.11-.23-.25-.29-.42-.06-.17-.1-.35-.12-.53l.02-.32c0,.17.02.3.07.41.04.11.11.19.2.24.09.05.19.08.32.08.2,0,.37-.08.48-.23.12-.15.18-.38.18-.67s-.06-.51-.18-.67c-.12-.15-.28-.23-.48-.23-.12,0-.23.03-.32.08s-.15.14-.2.24c-.04.11-.07.25-.07.41l-.02-.32c.02-.19.06-.37.13-.54s.17-.31.31-.42c.14-.11.33-.16.57-.16s.44.06.62.19c.18.12.31.31.41.54.1.24.15.52.15.86s-.05.63-.15.87c-.1.24-.24.42-.42.55-.18.12-.4.19-.65.19Z" fill="#f6f0e8"/><path d="M19.83,7.82c-.15,0-.3-.02-.44-.06-.14-.04-.26-.09-.37-.16-.11-.06-.19-.13-.27-.2l.36-.75c.1.11.2.2.32.28.11.07.24.11.37.11.12,0,.21-.03.29-.08.08-.05.14-.15.19-.3l.12-.32.24.16h-.84l-.99-2.86h.99l.44,1.44.23,1.02.23-1.02.43-1.44h1.01l-1.1,3.25c-.12.34-.28.58-.47.72-.19.14-.43.22-.72.22Z" fill="#f6f0e8"/><rect x="14.12" y="8.59" width="4.47" height="13.55" fill="#f6f0e8"/><path d="M15.92,9.36v-.57h1.96v.57h-1.96ZM15.92,10.62v-.57h1.17c.12,0,.21-.02.29-.06.07-.04.1-.13.1-.26,0-.09-.02-.16-.05-.21-.03-.05-.09-.09-.16-.11-.07-.02-.16-.03-.26-.03l.21-.02c.12.01.23.04.34.09.11.05.2.12.27.21s.1.22.1.37c0,.19-.05.33-.16.44-.11.11-.26.16-.47.16h-1.37Z" fill="#f6f0e8"/><path d="M15.87,11.68c0-.16.04-.3.12-.41s.2-.21.35-.27c.15-.06.34-.09.55-.09s.4.03.55.09c.15.06.27.15.35.26.08.11.12.25.12.4s-.03.27-.1.36-.16.15-.27.2c-.11.04-.22.07-.34.08l-.21-.02c.11,0,.2-.01.26-.04s.12-.07.16-.13c.04-.06.05-.12.05-.21,0-.12-.05-.23-.15-.3-.1-.08-.24-.11-.43-.11s-.33.04-.43.12c-.1.08-.15.18-.15.31,0,.08.02.15.05.2.03.06.08.1.15.13.07.03.16.04.26.04l-.21.02c-.12-.01-.23-.04-.34-.08-.11-.04-.2-.1-.27-.18-.07-.08-.1-.2-.1-.36ZM15.92,12.85v-.57h2.68v.57h-2.68Z" fill="#f6f0e8"/><path d="M15.92,13.82v-.57h1.96v.57h-1.96ZM16.95,13.82l.2-.02c.09.01.18.03.27.06.09.03.17.07.25.12.08.05.13.12.18.19s.07.17.07.27c0,.15-.04.26-.13.33-.09.08-.21.11-.36.11-.1,0-.2-.01-.28-.04-.08-.03-.14-.05-.18-.07v-.55s.09.07.15.1c.06.03.12.04.18.04s.1-.01.14-.04c.04-.03.06-.07.06-.14s-.02-.13-.07-.18c-.04-.06-.11-.11-.19-.14s-.17-.05-.28-.05Z" fill="#f6f0e8"/><path d="M15.92,15.71v-.57h1.96v.57h-1.96ZM18.11,15.71v-.57h.49v.57h-.49Z" fill="#f6f0e8"/><path d="M15.88,16.7c0-.12.02-.23.07-.32.05-.09.12-.16.21-.21.1-.05.21-.07.34-.07h1.37v.57h-1.17c-.12,0-.21.02-.29.07-.07.04-.1.13-.1.26,0,.09.02.16.05.21.03.05.09.09.16.11s.16.03.26.03l-.21.02c-.12-.01-.23-.04-.34-.09-.11-.05-.2-.12-.27-.21-.07-.09-.1-.21-.1-.36ZM15.92,17.93v-.57h1.96v.57h-1.96Z" fill="#f6f0e8"/><path d="M15.88,19.13c0-.14.02-.28.05-.41.03-.13.08-.25.14-.34s.13-.18.21-.24l.39.26c-.06.06-.11.12-.17.2-.05.08-.1.16-.13.26-.03.09-.05.19-.05.29,0,.08.01.14.04.18.03.04.06.07.11.07s.09-.03.12-.08c.03-.05.05-.13.08-.24l.06-.26c.03-.12.07-.22.12-.31.05-.09.11-.16.18-.22.07-.05.17-.08.28-.08.19,0,.35.07.45.22.11.14.16.34.16.58,0,.21-.04.39-.11.54-.08.15-.16.26-.24.33l-.38-.26c.1-.1.18-.2.23-.32.05-.12.08-.23.08-.34,0-.07-.01-.12-.04-.16s-.06-.06-.11-.06-.09.02-.12.07c-.03.05-.06.14-.1.27l-.06.22c-.06.22-.13.37-.22.47-.09.1-.21.15-.36.15-.12,0-.23-.03-.32-.1s-.16-.16-.2-.27c-.05-.11-.07-.25-.07-.4Z" fill="#f6f0e8"/><rect x="0" y="0" width="24" height="24" rx="4" ry="4" fill="#2d1d14"/><path d="M15.64,19.91h-1.85c-.38,0-.74-.07-1.08-.2-.34-.13-.61-.35-.83-.65-.21-.3-.32-.71-.32-1.22v-3.72l.09-.44c0-.66-.11-1.17-.33-1.54-.22-.37-.7-.55-1.43-.55-.69,0-1.33.17-1.91.52-.59.34-1.07.79-1.45,1.33l-1.58-2.29c.35-.4.78-.76,1.3-1.1.51-.34,1.1-.61,1.75-.83.65-.21,1.36-.32,2.12-.32,1.36,0,2.42.36,3.18,1.07.75.71,1.13,1.74,1.13,3.09v3.7c0,.24.05.4.14.5s.24.14.43.14h.64v2.51ZM8.07,20.15c-.84,0-1.52-.22-2.05-.67-.53-.45-.79-1.1-.79-1.97,0-.82.26-1.48.78-1.99.52-.51,1.29-.94,2.3-1.29l3.59-1.34.29,1.87-2.9,1.21c-.43.18-.72.35-.89.52-.17.17-.25.36-.25.56,0,.25.09.44.27.58.18.14.46.21.83.21s.7-.05.99-.14.54-.23.74-.41c.2-.18.35-.39.45-.64s.15-.54.15-.88l.07,1.06c-.1.48-.28.98-.54,1.49-.26.51-.63.94-1.12,1.3-.49.36-1.13.54-1.9.54Z" fill="#e5cdaf"/><path d="M3.43,6.76c-.22,0-.44-.03-.64-.08s-.38-.12-.54-.22-.28-.2-.37-.32l.41-.61c.09.09.19.17.32.26.12.09.26.15.4.21.14.05.29.08.45.08.12,0,.22-.02.28-.06s.1-.1.1-.18-.04-.14-.13-.18c-.09-.04-.21-.08-.37-.12l-.41-.1c-.18-.05-.35-.11-.49-.18-.14-.07-.26-.16-.34-.28-.08-.11-.12-.26-.12-.44,0-.3.11-.54.34-.71s.52-.25.9-.25c.33,0,.62.06.85.18.23.12.4.24.51.38l-.4.6c-.15-.15-.31-.27-.49-.36-.18-.08-.36-.12-.54-.12-.11,0-.19.02-.26.06s-.09.1-.09.17c0,.08.04.14.12.19.08.05.22.1.42.15l.34.09c.34.09.58.21.74.35s.23.33.23.56c0,.2-.05.36-.16.5-.1.14-.25.25-.43.32s-.39.11-.63.11Z" fill="#e5cdaf"/><path d="M5.99,6.69h-.89V2.51h.89v4.19ZM7.96,6.69h-.89v-1.83c0-.19-.03-.33-.1-.44-.06-.11-.2-.16-.41-.16-.14,0-.25.03-.33.08-.08.05-.14.14-.18.24-.04.11-.05.25-.05.41l-.02-.32c.02-.19.07-.37.14-.54.07-.17.19-.31.33-.42.15-.11.34-.16.57-.16.29,0,.52.09.69.26.17.17.25.41.25.73v2.14Z" fill="#e5cdaf"/><path d="M9.93,6.76c-.31,0-.58-.07-.81-.2-.23-.14-.41-.32-.53-.57s-.19-.52-.19-.83.06-.59.19-.83.3-.43.53-.56c.23-.14.5-.2.81-.2s.59.07.83.2.42.32.54.56c.13.24.19.52.19.83s-.06.58-.19.83c-.13.24-.31.43-.54.57s-.51.2-.83.2ZM9.94,6.03c.13,0,.24-.03.34-.09.1-.06.17-.15.23-.28.05-.13.08-.29.08-.5s-.03-.38-.08-.5c-.05-.13-.13-.22-.23-.28-.1-.06-.21-.09-.34-.09s-.24.03-.33.09c-.1.06-.17.15-.23.28-.05.13-.08.29-.08.5s.03.38.08.5c.05.13.13.22.23.28.1.06.21.09.33.09Z" fill="#e5cdaf"/><path d="M13.89,4.31h-2.2v-.68h2.2v.68ZM13.14,6.76c-.23,0-.41-.04-.56-.12-.15-.08-.26-.2-.33-.34-.07-.15-.11-.31-.11-.5v-2.52l.89-.47v2.82c0,.12.03.21.08.26.06.05.13.07.21.07.1,0,.18-.03.27-.1.08-.06.15-.14.19-.23l.26.73c-.07.08-.18.17-.33.26s-.35.13-.58.13Z" fill="#e5cdaf"/><path d="M16.51,6.69h-.89V2.51h.89v4.19ZM17.45,6.76c-.24,0-.42-.05-.56-.16-.13-.11-.23-.25-.29-.42-.06-.17-.1-.35-.12-.53l.02-.32c0,.17.02.3.07.41.04.11.11.19.2.24.09.05.19.08.32.08.2,0,.37-.08.48-.23.12-.15.18-.38.18-.67s-.06-.51-.18-.67c-.12-.15-.28-.23-.48-.23-.12,0-.23.03-.32.08s-.15.14-.2.24c-.04.11-.07.25-.07.41l-.02-.32c.02-.19.06-.37.13-.54s.17-.31.31-.42c.14-.11.33-.16.57-.16s.44.06.62.19c.18.12.31.31.41.54.1.24.15.52.15.86s-.05.63-.15.87c-.1.24-.24.42-.42.55-.18.12-.4.19-.65.19Z" fill="#e5cdaf"/><path d="M19.83,7.82c-.15,0-.3-.02-.44-.06-.14-.04-.26-.09-.37-.16-.11-.06-.19-.13-.27-.2l.36-.75c.1.11.2.2.32.28.11.07.24.11.37.11.12,0,.21-.03.29-.08.08-.05.14-.15.19-.3l.12-.32.24.16h-.84l-.99-2.86h.99l.44,1.44.23,1.02.23-1.02.43-1.44h1.01l-1.1,3.25c-.12.34-.28.58-.47.72-.19.14-.43.22-.72.22Z" fill="#e5cdaf"/><path d="M15.92,9.36v-.57h1.96v.57h-1.96ZM15.92,10.62v-.57h1.17c.12,0,.21-.02.29-.06.07-.04.1-.13.1-.26,0-.09-.02-.16-.05-.21-.03-.05-.09-.09-.16-.11-.07-.02-.16-.03-.26-.03l.21-.02c.12.01.23.04.34.09.11.05.2.12.27.21s.1.22.1.37c0,.19-.05.33-.16.44-.11.11-.26.16-.47.16h-1.37Z" fill="#e5cdaf"/><path d="M15.87,11.68c0-.16.04-.3.12-.41s.2-.21.35-.27c.15-.06.34-.09.55-.09s.4.03.55.09c.15.06.27.15.35.26.08.11.12.25.12.4s-.03.27-.1.36-.16.15-.27.2c-.11.04-.22.07-.34.08l-.21-.02c.11,0,.2-.01.26-.04s.12-.07.16-.13c.04-.06.05-.12.05-.21,0-.12-.05-.23-.15-.3-.1-.08-.24-.11-.43-.11s-.33.04-.43.12c-.1.08-.15.18-.15.31,0,.08.02.15.05.2.03.06.08.1.15.13.07.03.16.04.26.04l-.21.02c-.12-.01-.23-.04-.34-.08-.11-.04-.2-.1-.27-.18-.07-.08-.1-.2-.1-.36ZM15.92,12.85v-.57h2.68v.57h-2.68Z" fill="#e5cdaf"/><path d="M15.92,13.82v-.57h1.96v.57h-1.96ZM16.95,13.82l.2-.02c.09.01.18.03.27.06.09.03.17.07.25.12.08.05.13.12.18.19s.07.17.07.27c0,.15-.04.26-.13.33-.09.08-.21.11-.36.11-.1,0-.2-.01-.28-.04-.08-.03-.14-.05-.18-.07v-.55s.09.07.15.1c.06.03.12.04.18.04s.1-.01.14-.04c.04-.03.06-.07.06-.14s-.02-.13-.07-.18c-.04-.06-.11-.11-.19-.14s-.17-.05-.28-.05Z" fill="#e5cdaf"/><path d="M15.92,15.71v-.57h1.96v.57h-1.96ZM18.11,15.71v-.57h.49v.57h-.49Z" fill="#e5cdaf"/><path d="M15.88,16.7c0-.12.02-.23.07-.32.05-.09.12-.16.21-.21.1-.05.21-.07.34-.07h1.37v.57h-1.17c-.12,0-.21.02-.29.07-.07.04-.1.13-.1.26,0,.09.02.16.05.21.03.05.09.09.16.11s.16.03.26.03l-.21.02c-.12-.01-.23-.04-.34-.09-.11-.05-.2-.12-.27-.21-.07-.09-.1-.21-.1-.36ZM15.92,17.93v-.57h1.96v.57h-1.96Z" fill="#e5cdaf"/><path d="M15.88,19.13c0-.14.02-.28.05-.41.03-.13.08-.25.14-.34s.13-.18.21-.24l.39.26c-.06.06-.11.12-.17.2-.05.08-.1.16-.13.26-.03.09-.05.19-.05.29,0,.08.01.14.04.18.03.04.06.07.11.07s.09-.03.12-.08c.03-.05.05-.13.08-.24l.06-.26c.03-.12.07-.22.12-.31.05-.09.11-.16.18-.22.07-.05.17-.08.28-.08.19,0,.35.07.45.22.11.14.16.34.16.58,0,.21-.04.39-.11.54-.08.15-.16.26-.24.33l-.38-.26c.1-.1.18-.2.23-.32.05-.12.08-.23.08-.34,0-.07-.01-.12-.04-.16s-.06-.06-.11-.06-.09.02-.12.07c-.03.05-.06.14-.1.27l-.06.22c-.06.22-.13.37-.22.47-.09.1-.21.15-.36.15-.12,0-.23-.03-.32-.1s-.16-.16-.2-.27c-.05-.11-.07-.25-.07-.4Z" fill="#e5cdaf"/></svg>